<?xml version="1.0" standalone="no"?>
<!DOCTYPE svg PUBLIC "-//W3C//DTD SVG 20010904//EN"
 "http://www.w3.org/TR/2001/REC-SVG-20010904/DTD/svg10.dtd">
<svg version="1.0" xmlns="http://www.w3.org/2000/svg"
 width="1280.000000pt" height="1162.000000pt" viewBox="0 0 1280.000000 1162.000000"
 preserveAspectRatio="xMidYMid meet">
<metadata>
Created by potrace 1.15, written by Peter Selinger 2001-2017
</metadata>
<g transform="translate(0.000000,1162.000000) scale(0.100000,-0.100000)"
fill="#000000" stroke="none">
<path d="M4040 10294 c-271 -33 -551 -126 -770 -256 -722 -431 -1189 -1310
-1306 -2458 -22 -221 -29 -613 -15 -795 64 -789 371 -1416 985 -2012 263 -256
546 -477 1126 -883 339 -237 528 -375 670 -490 658 -533 1295 -1283 1588
-1870 43 -85 86 -183 97 -218 11 -34 23 -62 26 -62 4 0 9 12 12 28 19 95 145
335 294 562 257 390 577 775 983 1181 358 358 587 551 1064 897 760 549 1062
796 1311 1068 478 524 712 1013 807 1684 21 149 17 773 -5 965 -81 682 -260
1216 -558 1660 -118 177 -319 412 -341 399 -4 -3 -8 2 -8 10 0 36 -264 238
-425 325 -135 73 -199 100 -351 147 -232 72 -544 103 -749 74 -345 -50 -701
-204 -1005 -435 -130 -99 -351 -317 -456 -450 -209 -265 -400 -598 -531 -928
-46 -116 -48 -118 -60 -90 -7 15 -35 84 -63 152 -97 235 -234 492 -370 696
-211 315 -489 597 -770 781 -212 139 -496 252 -740 295 -110 20 -361 33 -440
23z m445 -432 c66 -16 158 -43 205 -60 109 -37 309 -138 380 -191 30 -22 78
-56 106 -75 94 -64 347 -342 434 -476 42 -65 115 -184 119 -195 2 -5 21 -37
41 -70 20 -33 69 -125 109 -205 40 -80 77 -152 82 -160 5 -8 14 -26 20 -40 5
-14 21 -47 34 -75 13 -27 31 -75 41 -105 9 -30 27 -68 38 -84 40 -56 120 -125
160 -140 23 -8 67 -24 99 -35 l58 -21 87 20 c94 23 237 99 248 133 3 9 16 29
28 45 13 15 42 74 66 132 23 58 58 141 77 185 19 44 42 96 50 115 20 49 138
261 191 345 102 160 307 387 507 559 174 150 203 171 359 250 239 122 476 175
736 163 130 -5 277 -44 464 -121 116 -48 347 -182 411 -238 24 -21 48 -38 53
-38 14 0 186 -187 250 -271 27 -36 59 -83 71 -105 12 -21 45 -78 75 -126 30
-48 68 -116 85 -150 18 -35 42 -83 55 -108 31 -60 61 -125 82 -180 9 -25 20
-49 24 -55 4 -5 17 -44 29 -85 12 -41 28 -95 35 -120 47 -159 61 -227 91 -464
74 -585 75 -920 6 -1316 -28 -159 -155 -503 -242 -657 -54 -94 -154 -249 -212
-326 -65 -87 -317 -368 -366 -408 -16 -13 -78 -68 -137 -123 -175 -160 -435
-364 -782 -614 -51 -37 -108 -78 -126 -92 -18 -14 -55 -40 -82 -59 -27 -19
-56 -40 -64 -48 -8 -7 -100 -77 -205 -154 -447 -333 -890 -750 -1267 -1195
-37 -43 -96 -113 -131 -154 -35 -41 -79 -96 -98 -121 -19 -25 -65 -87 -104
-137 -38 -50 -80 -106 -93 -124 -72 -103 -125 -168 -137 -168 -8 0 -21 10 -30
22 -9 13 -38 55 -65 93 -27 39 -59 84 -70 100 -91 133 -227 304 -429 539 -194
225 -638 650 -861 824 -98 77 -244 187 -274 207 -16 11 -43 30 -60 43 -17 12
-47 33 -66 47 -19 14 -49 35 -66 47 -29 21 -317 224 -477 335 -37 27 -89 64
-115 84 -26 19 -75 55 -110 80 -99 69 -120 86 -288 224 -333 274 -710 674
-794 845 -12 25 -28 52 -35 60 -15 18 -131 244 -176 345 -67 150 -135 371
-149 486 -5 41 -14 112 -21 159 -18 113 -18 671 -1 845 18 183 40 371 52 430
5 28 17 95 25 150 9 55 25 118 36 141 10 23 19 47 19 55 1 52 155 433 247 613
109 212 165 291 332 474 78 85 296 280 354 315 175 109 298 166 406 187 143
29 141 28 346 25 173 -2 201 -5 310 -33z"/>
</g>
</svg>
